<svg xmlns="http://www.w3.org/2000/svg" viewBox="0 0 120.87 112.87"><defs><style>.cls-1{opacity:0.13;}.cls-2{fill:#fff;}</style></defs><g id="Layer_2" data-name="Layer 2"><g id="Layer_1-2" data-name="Layer 1"><g class="cls-1"><rect width="120.87" height="112.87"/></g><path class="cls-2" d="M118.87,2V110.87H2V2H118.87m2-2H0V112.87H120.87V0Z"/><path class="cls-2" d="M25.22,25.6h-5.9v-.24H33.79v.24h-5.9V40.77H25.22Z"/><path class="cls-2" d="M36.51,25.36H39.2v7.33h8.63V25.36h2.69V40.77H47.83V32.93H39.2v7.84H36.51Z"/><path class="cls-2" d="M54.91,25.36H65.65v.24H57.59v7.09H63.5v.24H57.59v7.6H66v.24H54.91Z"/><path class="cls-2" d="M20.64,63V47.62h5c5.29,0,9,2.75,9,7.57,0,5-3.81,7.84-8.72,7.84Zm4.69-15.17h-2V62.79h2.18c4.16,0,6.25-2.6,6.25-7.6C31.76,50.52,29.67,47.86,25.33,47.86Z"/><path class="cls-2" d="M44.89,58.08H38l-2.25,5h-.27L42.56,47.4h.09L50.11,63H47.23Zm-3.52-7.47-3.3,7.22h6.71Z"/><path class="cls-2" d="M56.54,63.25,49.07,47.62H52L57.82,60l5.65-12.42h.27L56.63,63.25Z"/><path class="cls-2" d="M80.66,56.67l-2.31-.62c-2.6-.68-4.34-1.78-4.34-4.19,0-2.57,2.33-4.46,5.48-4.46a5.93,5.93,0,0,1,5.66,3.14l-.2.16a5.67,5.67,0,0,0-5.42-3.08c-2.22,0-3.78,1.14-3.78,3s1.52,2.44,3.48,3l2.29.62c2.55.68,4.27,1.82,4.27,4.27,0,3-2.75,4.82-5.88,4.82-3,0-5.4-1.32-6.37-3.57l.22-.13c.95,2.2,3.33,3.46,6.06,3.46S84,61.62,84,59.77,82.57,57.15,80.66,56.67Z"/><path class="cls-2" d="M34.18,85.51l-1.87-2.89a5.56,5.56,0,0,1-5,2.89,7.66,7.66,0,0,1-7.84-7.89,7.89,7.89,0,0,1,8.1-8c3,0,5.18,1.43,6.1,4l-.2.09A5.6,5.6,0,0,0,28,69.94c-3.39,0-5.51,3-5.51,7.7s1.79,7.65,4.94,7.65a4.07,4.07,0,0,0,4.16-4.43V78.28h2.64v7.23Z"/><path class="cls-2" d="M40.79,85.29H38.11V69.87H44.6c3.31,0,6,1.17,6,4.08S47.73,78,45.51,78v0c2.13.13,3.43.93,4,2.62l.77,2.25a6,6,0,0,0,1.25,2.36h-3a7.88,7.88,0,0,1-1-2.12l-.77-2.29c-.64-1.94-1.45-2.75-3.54-2.75H40.79Zm0-7.4h3c2.31,0,4-1.08,4-3.88s-1.54-3.9-3.92-3.9H40.79Z"/><path class="cls-2" d="M61.26,69.65a7.93,7.93,0,1,1-7.88,7.93A7.81,7.81,0,0,1,61.26,69.65Zm0,15.64c3.24,0,4.89-2.65,4.89-7.71s-1.65-7.71-4.89-7.71-4.87,2.64-4.87,7.71S58,85.29,61.26,85.29Z"/><path class="cls-2" d="M85.07,69.87v9.38c0,4.08-2.6,6.26-6.19,6.26-4.14,0-6.63-2.38-6.63-6.24v-9.4h2.69V79c0,3.61,1.47,5.77,4.82,5.77,2.84,0,5.06-1.91,5.06-5.64V69.87Z"/><path class="cls-2" d="M91.94,78.59v6.7H89.26V69.87h6.16c3.31,0,6.13,1.19,6.13,4.36s-2.8,4.36-6.13,4.36Zm2.69-.24c2.45,0,4-1.37,4-4.12s-1.58-4.12-4-4.12H91.94v8.24Z"/><polygon class="cls-2" points="71.29 47.86 71.29 47.62 69.68 47.62 69.68 47.62 67 47.62 67 47.62 65.39 47.62 65.39 47.86 67 47.86 67 62.79 65.39 62.79 65.39 63.03 71.29 63.03 71.29 62.79 69.68 62.79 69.68 47.86 71.29 47.86"/><path class="cls-2" d="M102.15,85.31V83h-.78v-.38h2V83h-.78v2.28Z"/><path class="cls-2" d="M104,85.31V82.65h.44l.81,1.89h0l.81-1.89h.44v2.66h-.4V83.46h0L105.44,85h-.32l-.68-1.57h0v1.85Z"/></g></g></svg>